<?xml version="1.0" standalone="no"?>
<!DOCTYPE svg PUBLIC "-//W3C//DTD SVG 20010904//EN"
 "http://www.w3.org/TR/2001/REC-SVG-20010904/DTD/svg10.dtd">
<svg version="1.0" xmlns="http://www.w3.org/2000/svg"
 width="1000.000000pt" height="1000.000000pt" viewBox="0 0 1000.000000 1000.000000"
 preserveAspectRatio="xMidYMid meet">
<metadata>
Created by potrace 1.11, written by Peter Selinger 2001-2013
</metadata>
<g transform="translate(0.000000,1000.000000) scale(0.100000,-0.100000)"
fill="#000000" stroke="none">
<path d="M110 8707 c-47 -21 -98 -84 -105 -130 -3 -23 -5 -513 -3 -1089 l3
-1046 31 -39 c63 -78 28 -75 743 -75 695 1 677 -1 732 59 28 30 39 53 45 93 6
38 5 140 -1 151 -4 5 -1 9 6 9 8 0 8 4 1 13 -7 8 -7 18 -2 27 5 8 5 21 0 31
-5 9 -7 19 -4 22 3 3 5 29 5 59 -1 29 -1 61 -1 71 -1 25 0 64 0 85 0 9 0 26 0
37 -1 11 -1 27 -1 35 1 8 1 37 1 63 -1 92 27 148 93 190 15 10 27 15 27 11 0
-4 6 -2 13 3 7 6 311 9 762 8 799 -1 770 1 820 -49 49 -49 71 -127 50 -181
-17 -44 -52 -118 -135 -290 -48 -99 -106 -220 -130 -270 -23 -49 -76 -160
-117 -245 -42 -85 -88 -182 -103 -215 -15 -33 -62 -132 -105 -220 -42 -88 -84
-177 -92 -197 -8 -21 -19 -38 -24 -38 -5 0 -8 -3 -7 -7 1 -5 -3 -17 -9 -28 -6
-11 -12 -24 -13 -30 -2 -5 -34 -75 -73 -155 -38 -80 -86 -181 -107 -225 -21
-44 -70 -147 -110 -230 -40 -82 -95 -197 -122 -255 -28 -58 -63 -131 -79 -163
-15 -31 -25 -57 -21 -57 4 0 2 -4 -4 -8 -5 -4 -18 -25 -28 -47 -10 -22 -35
-74 -56 -117 -21 -42 -36 -79 -33 -82 4 -3 1 -6 -5 -6 -7 0 -12 -4 -12 -10 0
-5 -32 -76 -71 -157 -39 -82 -93 -193 -119 -248 -26 -55 -78 -163 -115 -240
-37 -77 -85 -178 -107 -225 -65 -140 -139 -294 -149 -310 -5 -8 -13 -24 -18
-35 -11 -25 -82 -175 -150 -317 -28 -60 -50 -110 -49 -112 2 -2 -4 -12 -13
-22 -8 -11 -28 -48 -44 -84 -24 -56 -102 -220 -233 -490 -20 -41 -37 -77 -38
-80 0 -3 -28 -62 -62 -132 -34 -70 -62 -130 -62 -134 0 -3 -9 -19 -21 -35 -11
-16 -18 -33 -14 -38 3 -5 1 -12 -4 -15 -5 -3 -8 -26 -5 -51 4 -53 41 -113 86
-140 33 -20 63 -20 2445 -22 1650 -2 2420 0 2439 7 15 6 42 26 60 45 30 33 38
56 47 140 1 13 -28 75 -45 96 -7 9 -87 54 -178 100 -91 46 -166 87 -168 91 -2
5 -8 8 -13 8 -20 0 -446 271 -495 315 -7 5 -71 55 -142 110 -144 110 -172 147
-172 227 0 46 28 100 86 165 16 18 40 47 54 64 14 18 30 37 36 43 9 9 187 223
234 280 8 10 25 29 37 43 11 13 35 41 53 63 17 21 41 49 52 62 11 13 34 40 51
60 17 21 48 44 69 53 44 17 114 20 123 5 4 -6 11 -8 16 -5 5 4 9 2 9 -2 0 -5
14 -17 32 -28 18 -10 45 -30 61 -44 16 -14 70 -56 120 -94 51 -37 100 -74 110
-82 9 -8 19 -15 22 -15 5 0 131 -83 152 -100 6 -5 29 -19 50 -30 21 -12 45
-25 53 -30 75 -47 256 -141 360 -188 142 -64 413 -161 490 -175 14 -3 39 -10
55 -17 17 -6 31 -11 33 -11 1 1 12 -1 25 -4 12 -2 36 -6 54 -9 17 -2 35 -6 40
-9 4 -3 31 -7 58 -10 28 -3 57 -8 65 -11 8 -3 42 -8 75 -11 33 -3 76 -8 95
-10 31 -3 258 -16 285 -16 63 0 244 11 273 16 20 3 53 7 72 9 52 6 86 13 190
41 52 14 100 26 107 28 7 2 16 6 19 10 4 4 13 7 19 7 7 0 33 9 59 20 25 12 49
20 52 20 4 -1 10 2 13 7 3 5 27 20 54 32 26 13 47 26 47 29 0 4 12 13 28 19
15 7 39 24 54 38 15 14 30 25 34 25 6 0 84 78 134 136 55 62 150 249 150 293
0 10 3 21 7 24 9 10 12 43 17 184 5 148 -10 242 -54 348 -7 17 -14 36 -16 43
-1 8 -10 22 -20 33 -9 10 -14 19 -10 19 9 0 -47 76 -106 143 -28 31 -57 57
-65 57 -7 0 -13 4 -13 10 0 16 -143 107 -260 165 -60 30 -113 55 -118 55 -4 0
-28 10 -52 21 -24 12 -49 22 -54 24 -11 2 -17 4 -91 32 -67 25 -174 59 -290
92 -60 17 -126 36 -145 42 -19 6 -42 12 -50 13 -8 2 -22 6 -30 9 -8 3 -46 13
-85 22 -38 9 -104 25 -145 35 -159 40 -205 51 -220 54 -8 2 -22 6 -30 9 -13 5
-53 15 -85 22 -5 2 -44 12 -85 24 -41 12 -93 26 -115 32 -22 6 -62 19 -90 27
-27 9 -53 17 -57 18 -5 1 -11 3 -15 4 -5 1 -12 3 -18 4 -5 1 -17 5 -25 8 -8 3
-99 33 -202 67 -103 34 -200 66 -215 73 -15 6 -30 12 -33 13 -51 17 -294 136
-301 147 -3 5 -10 10 -15 10 -5 -1 -31 13 -59 29 -73 43 -84 50 -149 94 -32
22 -66 45 -75 50 -9 6 -18 12 -21 15 -3 3 -39 31 -80 62 -63 48 -221 196 -255
240 -52 65 -104 137 -113 155 -7 12 -18 27 -25 35 -40 42 -182 381 -201 478
-2 14 -9 45 -16 70 -6 25 -13 56 -14 70 -2 14 -6 40 -10 58 -11 48 -17 107
-19 189 -1 40 -5 73 -8 73 -7 0 -3 368 5 420 3 19 7 56 10 83 3 26 8 64 12 85
4 20 9 46 10 57 1 11 3 20 4 20 1 0 3 11 6 25 10 56 58 211 91 295 106 267
285 516 494 686 22 19 51 42 62 52 12 10 34 26 50 35 15 9 27 20 27 24 0 4 6
8 13 8 18 0 74 56 94 93 41 80 2 186 -85 231 -28 14 -275 16 -2724 15 -1968 0
-2700 -3 -2718 -12z"/>
<path d="M7328 7756 c-1 -2 -64 -6 -138 -9 -74 -4 -146 -9 -159 -11 -13 -3
-48 -8 -78 -11 -30 -2 -58 -7 -62 -9 -4 -3 -18 -7 -32 -9 -13 -3 -44 -10 -69
-17 -25 -7 -49 -13 -55 -15 -12 -2 -34 -11 -99 -36 -27 -10 -54 -19 -62 -19
-7 0 -14 -3 -16 -7 -1 -5 -34 -24 -72 -43 -90 -46 -182 -115 -237 -180 -24
-29 -48 -58 -54 -64 -42 -49 -110 -209 -120 -286 -1 -8 -5 -34 -9 -57 -9 -55
-10 -199 -1 -243 4 -19 8 -44 10 -55 13 -89 69 -228 126 -312 44 -65 152 -170
221 -216 87 -57 258 -141 396 -193 80 -30 225 -80 242 -82 3 -1 23 -8 44 -17
22 -9 47 -18 55 -20 58 -14 207 -61 209 -67 2 -5 7 -6 12 -3 4 3 21 1 36 -4
16 -5 74 -21 129 -36 55 -15 107 -29 115 -32 8 -4 26 -8 40 -10 14 -2 39 -8
56 -14 17 -5 40 -11 50 -13 10 -3 39 -9 64 -16 25 -6 58 -13 74 -16 16 -2 35
-9 42 -15 8 -6 14 -9 14 -6 0 3 15 1 33 -4 17 -6 39 -12 47 -14 87 -21 118
-29 135 -36 11 -4 67 -22 125 -39 58 -17 114 -35 125 -40 11 -5 73 -27 138
-50 65 -23 167 -63 227 -90 61 -26 110 -46 110 -43 0 3 6 1 13 -5 6 -5 73 -41
147 -79 74 -38 154 -81 177 -96 24 -15 45 -27 48 -27 8 0 224 -150 251 -175 7
-5 26 -21 44 -35 18 -14 42 -34 54 -45 56 -53 89 -69 146 -69 84 0 151 53 168
134 1 8 3 599 4 1312 0 1154 -1 1301 -15 1331 -27 57 -95 104 -147 101 -79 -3
-83 -5 -129 -53 -51 -53 -54 -57 -96 -121 -91 -138 -199 -278 -225 -294 -17
-9 -48 -20 -68 -22 -35 -5 -111 12 -122 27 -13 17 -198 131 -276 170 -49 24
-91 46 -94 49 -5 6 -226 100 -234 100 -3 0 -17 5 -33 12 -15 6 -30 12 -33 13
-19 4 -87 29 -95 34 -5 3 -12 6 -15 6 -3 1 -35 11 -72 23 -37 12 -75 24 -85
25 -10 2 -25 7 -33 10 -14 5 -59 17 -87 23 -7 1 -40 9 -75 18 -73 18 -111 26
-153 32 -16 2 -56 9 -87 14 -32 6 -79 13 -105 16 -27 3 -61 7 -78 9 -16 2 -86
7 -155 10 -69 3 -130 8 -137 10 -6 2 -13 2 -15 1z"/>
</g>
</svg>
