<?xml version="1.0" encoding="utf-8"?>
<!-- Generator: Adobe Illustrator 17.1.0, SVG Export Plug-In . SVG Version: 6.00 Build 0)  -->
<!DOCTYPE svg PUBLIC "-//W3C//DTD SVG 1.1//EN" "http://www.w3.org/Graphics/SVG/1.1/DTD/svg11.dtd">
<svg version="1.1" id="Layer_1" xmlns="http://www.w3.org/2000/svg" xmlns:xlink="http://www.w3.org/1999/xlink" x="0px" y="0px"
	 width="25px" height="25px" viewBox="0 0 25 25" enable-background="new 0 0 25 25" xml:space="preserve">
<g>
	<path fill="#9A9A9A" d="M22,4.8c1.1,0,2,0.9,2,2v10.3c0,1.1-0.9,2-2,2H10.9h-0.4l-0.3,0.2l-4.5,3.6v-2.8v-1h-1H3c-1.1,0-2-0.9-2-2
		V6.8c0-1.1,0.9-2,2-2H22 M22,3.8H3c-1.7,0-3,1.3-3,3v10.3c0,1.7,1.3,3,3,3h1.8V25l6.1-4.9H22c1.7,0,3-1.3,3-3V6.8
		C25,5.1,23.7,3.8,22,3.8L22,3.8z"/>
</g>
</svg>
