<?xml version="1.0" encoding="utf-8"?>
<!-- Generator: Adobe Illustrator 17.1.0, SVG Export Plug-In . SVG Version: 6.00 Build 0)  -->
<!DOCTYPE svg PUBLIC "-//W3C//DTD SVG 1.1//EN" "http://www.w3.org/Graphics/SVG/1.1/DTD/svg11.dtd">
<svg version="1.1" id="Layer_1" xmlns="http://www.w3.org/2000/svg" xmlns:xlink="http://www.w3.org/1999/xlink" x="0px" y="0px"
	 width="25px" height="25px" viewBox="293.5 383.5 25 25" enable-background="new 293.5 383.5 25 25" xml:space="preserve">
<g>
	<path fill="#9A9A9A" d="M315.5,389.5c1.1,0,2,0.9,2,2v11.1c0,1.1-0.9,2-2,2h-19c-1.1,0-2-0.9-2-2v-11.1c0-1.1,0.9-2,2-2H315.5
		 M315.5,388.5h-19c-1.7,0-3,1.3-3,3v11.1c0,1.7,1.3,3,3,3h19c1.7,0,3-1.3,3-3v-11.1C318.5,389.8,317.2,388.5,315.5,388.5
		L315.5,388.5z"/>
</g>
<polyline fill="none" stroke="#9A9A9A" stroke-miterlimit="10" points="294.5,389.5 306,397.6 317.5,389.5 "/>
</svg>
