<?xml version="1.0" encoding="utf-8"?>
<!-- Generator: Adobe Illustrator 17.1.0, SVG Export Plug-In . SVG Version: 6.00 Build 0)  -->
<!DOCTYPE svg PUBLIC "-//W3C//DTD SVG 1.1//EN" "http://www.w3.org/Graphics/SVG/1.1/DTD/svg11.dtd">
<svg version="1.1" id="Layer_1" xmlns="http://www.w3.org/2000/svg" xmlns:xlink="http://www.w3.org/1999/xlink" x="0px" y="0px"
	 width="25px" height="25px" viewBox="0 0 25 25" enable-background="new 0 0 25 25" xml:space="preserve">
<g>
	<g>
		<path fill="#9A9A9A" d="M5.4,1C5.7,1,6,1.1,6.2,1.3l0.1,0.1l0,0l3.2,3.2L9.4,4.8l0.8,0.7c0.2,0.2,0.3,0.4,0.3,0.7
			c0,0.3-0.1,0.6-0.3,0.8L8.3,8.9L7.8,9.4L8.1,10c0.7,1.6,1.7,3.1,2.9,4.2c1.5,1.4,3.1,2.4,4.2,2.9l0.6,0.3l0.5-0.5l1.9-1.9
			c0.2-0.2,0.5-0.3,0.8-0.3s0.5,0.1,0.7,0.2l0,0l0.1,0.1l3.9,3.9c0.4,0.4,0.4,1.1,0,1.6l-3,3l0,0c-0.4,0.4-1,0.6-1.6,0.6
			c-0.3,0-0.5,0-0.8-0.1h-0.1c-4.1-1.6-7.6-3.9-10.4-6.7C3.6,13.1,1.7,8.6,1.2,7l0,0L1.1,6.8C0.8,6,1,5.2,1.6,4.6l0.7-0.7l0,0
			l2.2-2.3l0,0l0.1-0.1C4.8,1.1,5.1,1,5.4,1 M5.4,0C4.9,0,4.4,0.3,4,0.5H3.9l0,0l-3,3.1l0,0C0,4.5-0.3,5.8,0.1,6.9l0,0
			c0.8,2.3,2.9,6.8,7,10.9s8.6,6.1,10.9,7l0,0c0.4,0.1,0.7,0.2,1.1,0.2c0.8,0,1.6-0.3,2.3-0.8l0,0l0,0l3-3c0.8-0.8,0.8-2.2,0-3
			l-3.9-3.9v-0.1c-0.4-0.4-0.9-0.6-1.5-0.6s-1.1,0.2-1.5,0.6l0,0l-1.9,1.9c-0.7-0.3-2.3-1.2-3.9-2.7S9.3,10.1,9,9.5l1.9-1.9
			c0.8-0.8,0.8-2.1,0-2.9l0,0l-0.1-0.1L7,0.6l0,0H6.9C6.4,0.3,5.9,0,5.4,0L5.4,0z"/>
	</g>
</g>
</svg>
