<?xml version="1.0" encoding="utf-8"?>
<!-- Generator: Adobe Illustrator 17.1.0, SVG Export Plug-In . SVG Version: 6.00 Build 0)  -->
<!DOCTYPE svg PUBLIC "-//W3C//DTD SVG 1.1//EN" "http://www.w3.org/Graphics/SVG/1.1/DTD/svg11.dtd">
<svg version="1.1" id="Layer_1" xmlns="http://www.w3.org/2000/svg" xmlns:xlink="http://www.w3.org/1999/xlink" x="0px" y="0px"
	 width="125px" height="93px" viewBox="0 0 125 93" enable-background="new 0 0 125 93" xml:space="preserve">
<g>
	<defs>
		<path id="SVGID_1_" d="M80.2,32c2.9,2,9.2,4.2,18.7,6.5c9.5,2.3,16.7,5.6,21.6,9.7c0.3,0.2,0.6,0.5,0.8,0.7
			c1.4,1.3,3.6,0.3,3.6-1.6V15.7v-0.1c0-2.1-2.7-3-3.9-1.3l-3.1,4.4c-0.7,1-2.1,1.2-3.1,0.5c-2.5-1.9-5.7-3.4-9.5-4.7
			c-4.7-1.6-9.4-2.4-13.9-2.4c-4.6,0-8.3,0.9-11.3,2.8c-2.9,1.9-4.4,4.7-4.4,8.5C75.8,27.1,77.3,30,80.2,32z"/>
	</defs>
	<clipPath id="SVGID_2_">
		<use xlink:href="#SVGID_1_"  overflow="visible"/>
	</clipPath>
	<linearGradient id="SVGID_3_" gradientUnits="userSpaceOnUse" x1="-0.9532" y1="3.8779" x2="127.8521" y2="90.3982">
		<stop  offset="0" style="stop-color:#20AFB2"/>
		<stop  offset="1" style="stop-color:#88F659"/>
	</linearGradient>
	<path clip-path="url(#SVGID_2_)" fill="url(#SVGID_3_)" d="M125,93H0V0h125V93z"/>
</g>
<g>
	<defs>
		<path id="SVGID_4_" d="M70.6,88.9c-4.6-2.1-9-5-13.2-8.4c-0.9-0.8-1.1-2.1-0.3-3.1l7.1-8.5c0.8-0.9,2.1-1.1,3-0.3
			c8.9,7.3,18.1,10.9,27.7,10.9c5.1,0,9.1-1.1,12.1-3.3c3-2.2,4.5-5.1,4.5-8.7c0-3.6-1.4-6.4-4.2-8.4s-7.6-3.8-14.5-5.5
			c-6.8-1.6-12-3.2-15.6-4.5c-3.6-1.4-6.7-3.2-9.5-5.4c-5.5-4.2-8.3-10.6-8.3-19.2c0-8.6,3.1-15.3,9.4-19.9c0.3-0.2,0.6-0.4,0.9-0.6
			C71.5,2.7,70.6,0,68.5,0L2.2,0C1,0,0,1,0,2.2v25.5c0,1.2,1,2.2,2.2,2.2h15.1c1.2,0,2.2-1,2.2-2.2V20c0-1.2,1-2.2,2.2-2.2h17.8
			c1.6,0,2.6,1.7,2,3.1l-33,69c-0.7,1.4,0.4,3.1,2,3.1l59.2,0C71.9,93,72.6,89.9,70.6,88.9z"/>
	</defs>
	<clipPath id="SVGID_5_">
		<use xlink:href="#SVGID_4_"  overflow="visible"/>
	</clipPath>
	<linearGradient id="SVGID_6_" gradientUnits="userSpaceOnUse" x1="-0.9532" y1="3.8779" x2="127.8521" y2="90.3982">
		<stop  offset="0" style="stop-color:#20AFB2"/>
		<stop  offset="1" style="stop-color:#88F659"/>
	</linearGradient>
	<path clip-path="url(#SVGID_5_)" fill="url(#SVGID_6_)" d="M125,93H0V0h125V93z"/>
</g>
</svg>
